<?xml version="1.0" encoding="iso-8859-1"?>
<!-- Generator: Adobe Illustrator 19.0.0, SVG Export Plug-In . SVG Version: 6.00 Build 0)  -->
<svg version="1.1" id="Layer_1" xmlns="http://www.w3.org/2000/svg" xmlns:xlink="http://www.w3.org/1999/xlink" x="0px" y="0px"
	 viewBox="0 0 194.828 194.828" style="enable-background:new 0 0 194.828 194.828;" xml:space="preserve">
<g>
	<g>
		<g>
			<path d="M151.967,38.966H19.483c-2.152,0-3.897,1.745-3.897,3.897v38.966c0,2.152,1.745,3.897,3.897,3.897h132.483
				c2.152,0,3.897-1.745,3.897-3.897V42.862C155.863,40.71,154.118,38.966,151.967,38.966z M148.07,77.931H23.38V46.759h124.69
				V77.931z"/>
			<path d="M151.967,116.897H66.242c-2.152,0-3.897,1.745-3.897,3.897v38.966c0,2.152,1.745,3.897,3.897,3.897h85.724
				c2.152,0,3.897-1.745,3.897-3.897v-38.966C155.863,118.641,154.118,116.897,151.967,116.897z M148.07,155.862H70.139V124.69
				h77.931V155.862z"/>
			<rect x="171.449" width="7.793" height="194.828"/>
		</g>
	</g>
</g>
<g>
</g>
<g>
</g>
<g>
</g>
<g>
</g>
<g>
</g>
<g>
</g>
<g>
</g>
<g>
</g>
<g>
</g>
<g>
</g>
<g>
</g>
<g>
</g>
<g>
</g>
<g>
</g>
<g>
</g>
</svg>
