<?xml version="1.0" encoding="iso-8859-1"?>
<!-- Generator: Adobe Illustrator 19.0.0, SVG Export Plug-In . SVG Version: 6.00 Build 0)  -->
<svg version="1.1" id="Layer_1" xmlns="http://www.w3.org/2000/svg" xmlns:xlink="http://www.w3.org/1999/xlink" x="0px" y="0px"
	 viewBox="0 0 202.624 202.624" style="enable-background:new 0 0 202.624 202.624;" xml:space="preserve">
<g>
	<g>
		<path d="M202.621,97.416h-38.966V58.45c0-2.152-1.743-3.897-3.897-3.897h-38.966c-2.154,0-3.897,1.745-3.897,3.897v38.966H85.724
			V35.07c0-2.152-1.743-3.897-3.897-3.897H42.862c-2.154,0-3.897,1.745-3.897,3.897v62.345H0v7.793h38.966v62.345
			c0,2.152,1.743,3.897,3.897,3.897h38.966c2.154,0,3.897-1.745,3.897-3.897v-62.345h31.172v38.966c0,2.152,1.743,3.897,3.897,3.897
			h38.966c2.154,0,3.897-1.745,3.897-3.897v-38.966h38.966v-7.793H202.621z M77.931,97.416v7.793v58.448H46.759v-58.448v-7.793
			V38.968h31.172V97.416z M155.862,97.416v7.793v35.069H124.69v-35.069v-7.793V62.346h31.172V97.416z"/>
	</g>
</g>
<g>
</g>
<g>
</g>
<g>
</g>
<g>
</g>
<g>
</g>
<g>
</g>
<g>
</g>
<g>
</g>
<g>
</g>
<g>
</g>
<g>
</g>
<g>
</g>
<g>
</g>
<g>
</g>
<g>
</g>
</svg>
