<?xml version="1.0" encoding="iso-8859-1"?>
<!-- Generator: Adobe Illustrator 19.0.0, SVG Export Plug-In . SVG Version: 6.00 Build 0)  -->
<svg version="1.1" id="Layer_1" xmlns="http://www.w3.org/2000/svg" xmlns:xlink="http://www.w3.org/1999/xlink" x="0px" y="0px"
	 viewBox="0 0 202.624 202.624" style="enable-background:new 0 0 202.624 202.624;" xml:space="preserve">
<g>
	<g>
		<path d="M167.553,38.966h-62.345V0h-7.793v38.966H35.071c-2.154,0-3.897,1.745-3.897,3.897v38.966
			c0,2.152,1.743,3.897,3.897,3.897h62.345v31.172H58.45c-2.154,0-3.897,1.745-3.897,3.897v38.966c0,2.152,1.743,3.897,3.897,3.897
			h38.966v38.966h7.793v-38.966h38.966c2.154,0,3.897-1.745,3.897-3.897v-38.966c0-2.152-1.743-3.897-3.897-3.897h-38.966V85.724
			h62.345c2.154,0,3.897-1.745,3.897-3.897V42.862C171.449,40.71,169.707,38.966,167.553,38.966z M140.277,124.69v31.172h-35.069
			h-7.793H62.347V124.69h35.069h7.793H140.277z M163.657,77.931h-58.448h-7.793H38.968V46.759h58.448h7.793h58.448V77.931z"/>
	</g>
</g>
<g>
</g>
<g>
</g>
<g>
</g>
<g>
</g>
<g>
</g>
<g>
</g>
<g>
</g>
<g>
</g>
<g>
</g>
<g>
</g>
<g>
</g>
<g>
</g>
<g>
</g>
<g>
</g>
<g>
</g>
</svg>
