<?xml version="1.0" encoding="iso-8859-1"?>
<!-- Generator: Adobe Illustrator 19.0.0, SVG Export Plug-In . SVG Version: 6.00 Build 0)  -->
<svg version="1.1" id="Layer_1" xmlns="http://www.w3.org/2000/svg" xmlns:xlink="http://www.w3.org/1999/xlink" x="0px" y="0px"
	 viewBox="0 0 194.828 194.828" style="enable-background:new 0 0 194.828 194.828;" xml:space="preserve">
<g>
	<g>
		<g>
			<path d="M175.345,38.966H42.862c-2.152,0-3.897,1.745-3.897,3.897v38.966c0,2.152,1.745,3.897,3.897,3.897h132.483
				c2.152,0,3.897-1.745,3.897-3.897V42.862C179.241,40.71,177.497,38.966,175.345,38.966z M171.449,77.931h-0.001H46.759V46.759
				h124.69V77.931z"/>
			<path d="M128.586,116.897H42.862c-2.152,0-3.897,1.745-3.897,3.897v38.966c0,2.152,1.745,3.897,3.897,3.897h85.724
				c2.152,0,3.897-1.745,3.897-3.897v-38.966C132.483,118.641,130.738,116.897,128.586,116.897z M124.69,155.862H46.759V124.69
				h77.931V155.862z"/>
			<rect x="15.586" width="7.793" height="194.828"/>
		</g>
	</g>
</g>
<g>
</g>
<g>
</g>
<g>
</g>
<g>
</g>
<g>
</g>
<g>
</g>
<g>
</g>
<g>
</g>
<g>
</g>
<g>
</g>
<g>
</g>
<g>
</g>
<g>
</g>
<g>
</g>
<g>
</g>
</svg>
